<?xml version="1.0" encoding="UTF-8" standalone="no"?>
<!-- Created with Inkscape (http://www.inkscape.org/) -->

<svg
   width="30.48mm"
   height="128.5mm"
   viewBox="0 0 30.480002 128.50002"
   version="1.1"
   id="svg8"
   inkscape:version="1.3 (0e150ed, 2023-07-21)"
   sodipodi:docname="ThresholdExpander.svg"
   xmlns:inkscape="http://www.inkscape.org/namespaces/inkscape"
   xmlns:sodipodi="http://sodipodi.sourceforge.net/DTD/sodipodi-0.dtd"
   xmlns:xlink="http://www.w3.org/1999/xlink"
   xmlns="http://www.w3.org/2000/svg"
   xmlns:svg="http://www.w3.org/2000/svg"
   xmlns:rdf="http://www.w3.org/1999/02/22-rdf-syntax-ns#"
   xmlns:cc="http://creativecommons.org/ns#"
   xmlns:dc="http://purl.org/dc/elements/1.1/">
  <defs
     id="defs2">
    <linearGradient
       id="linearGradient1"
       inkscape:collect="always">
      <stop
         style="stop-color:#f2f2f2;stop-opacity:1"
         offset="0"
         id="stop1" />
      <stop
         style="stop-color:#cccccc;stop-opacity:1"
         offset="1"
         id="stop2" />
    </linearGradient>
    <linearGradient
       inkscape:collect="always"
       xlink:href="#linearGradient1"
       id="linearGradient2"
       x1="5.6126599"
       y1="185.60524"
       x2="23.252449"
       y2="285.02948"
       gradientUnits="userSpaceOnUse" />
  </defs>
  <sodipodi:namedview
     id="base"
     pagecolor="#ffffff"
     bordercolor="#666666"
     borderopacity="1.0"
     inkscape:pageopacity="0.0"
     inkscape:pageshadow="2"
     inkscape:zoom="0.98994949"
     inkscape:cx="338.4011"
     inkscape:cy="191.42391"
     inkscape:document-units="mm"
     inkscape:current-layer="layer1"
     showgrid="false"
     units="mm"
     inkscape:snap-bbox="true"
     inkscape:snap-page="true"
     inkscape:bbox-nodes="false"
     inkscape:snap-bbox-edge-midpoints="false"
     inkscape:window-width="1512"
     inkscape:window-height="900"
     inkscape:window-x="505"
     inkscape:window-y="189"
     inkscape:window-maximized="0"
     inkscape:snap-bbox-midpoints="true"
     inkscape:snap-nodes="false"
     inkscape:showpageshadow="2"
     inkscape:pagecheckerboard="0"
     inkscape:deskcolor="#d1d1d1" />
  <metadata
     id="metadata5">
    <rdf:RDF>
      <cc:Work
         rdf:about="">
        <dc:format>image/svg+xml</dc:format>
        <dc:type
           rdf:resource="http://purl.org/dc/dcmitype/StillImage" />
        <dc:title />
      </cc:Work>
    </rdf:RDF>
  </metadata>
  <g
     inkscape:label="Layer 1"
     inkscape:groupmode="layer"
     id="layer1"
     transform="translate(0,-168.49998)">
    <rect
       style="display:inline;opacity:1;vector-effect:none;fill:url(#linearGradient2);fill-opacity:1;fill-rule:evenodd;stroke:none;stroke-width:0.649358;stroke-linecap:butt;stroke-linejoin:miter;stroke-miterlimit:4;stroke-dasharray:none;stroke-dashoffset:0;stroke-opacity:1;paint-order:normal"
       id="rect420"
       width="30.48"
       height="128.5"
       x="5.9211732e-17"
       y="168.49997" />
    <g
       id="g2"
       transform="matrix(0.13123371,0,0,0.13123371,7.0676234,149.43501)"
       inkscape:label="logo">
      <path
         class="cls-1"
         d="m 80.724758,201.82627 c 0.32927,0.32927 0.59867,0.97967 0.59867,1.44534 v 4.02166 c 0,0.46567 -0.2694,1.11607 -0.59867,1.44534 l -0.70763,0.70763 c -0.32927,0.32927 -0.97967,0.59867 -1.44534,0.59867 H 55.500121 c -0.465666,0 -1.116065,0.2694 -1.445339,0.59868 l -0.707628,0.70762 c -0.329274,0.32928 -0.598673,0.97968 -0.598673,1.44534 v 5.92667 c 0,0.46567 0.381,0.84667 0.846667,0.84667 h 24.97667 c 0.46566,0 1.11606,0.2694 1.44534,0.59867 l 0.70762,0.70763 c 0.32928,0.32927 0.59868,0.97967 0.59868,1.44534 v 13.54666 c 0,0.46567 -0.2694,1.11607 -0.59868,1.44534 l -0.70762,0.70763 c -0.32928,0.32927 -0.97968,0.59867 -1.44534,0.59867 h -4.02167 c -0.46567,0 -1.11607,0.2694 -1.44534,0.59868 l -0.707628,0.70762 c -0.329274,0.32928 -0.598673,0.97968 -0.598673,1.44534 v 4.02167 c 0,0.46567 -0.269398,1.11607 -0.598672,1.44534 l -0.707628,0.70763 c -0.329274,0.32927 -0.979673,0.59867 -1.44534,0.59867 H 45.975201 c -0.465667,0 -1.116065,-0.2694 -1.445339,-0.59867 l -0.707629,-0.70763 c -0.329273,-0.32927 -0.598672,-0.97967 -0.598672,-1.44534 v -4.02167 c 0,-0.46566 0.269399,-1.11606 0.598672,-1.44534 l 0.707629,-0.70762 c 0.329274,-0.32928 0.979672,-0.59868 1.445339,-0.59868 h 23.071666 c 0.465667,0 1.116066,-0.2694 1.44534,-0.59867 l 0.707628,-0.70763 c 0.329274,-0.32927 0.598672,-0.97967 0.598672,-1.44534 v -4.02166 c 0,-0.46567 -0.269398,-1.11607 -0.598672,-1.44534 l -0.707628,-0.70763 c -0.329274,-0.32927 -0.979673,-0.59867 -1.44534,-0.59867 H 45.975201 c -0.465667,0 -1.116065,-0.2694 -1.445339,-0.59868 l -0.707629,-0.70762 c -0.329273,-0.32928 -0.598672,-0.97968 -0.598672,-1.44534 v -13.54667 c 0,-0.46567 0.269399,-1.11607 0.598672,-1.44534 l 0.707629,-0.70763 c 0.329274,-0.32927 0.979672,-0.59867 1.445339,-0.59867 h 4.021667 c 0.465666,0 1.116065,-0.2694 1.445339,-0.59867 l 0.707628,-0.70763 c 0.329274,-0.32928 0.598673,-0.97967 0.598673,-1.44534 v -4.02167 c 0,-0.46566 0.269398,-1.11606 0.598672,-1.44534 l 0.707629,-0.70762 c 0.329273,-0.32928 0.979672,-0.59868 1.445339,-0.59868 h 23.07167 c 0.46566,0 1.11606,0.2694 1.44534,0.59868 l 0.70762,0.70762 z"
         id="path1-3"
         style="fill:#010101;stroke-width:0.264583" />
      <path
         class="cls-1"
         d="m 17.611762,190.99494 c 0.465667,0 1.116066,0.2694 1.445339,0.59867 l 0.707629,0.70763 c 0.329274,0.32927 0.598672,0.97967 0.598672,1.44534 v 13.54667 c 0,0.46566 0.269399,1.11606 0.598673,1.44534 l 0.707628,0.70762 c 0.329274,0.32928 0.979673,0.59868 1.445339,0.59868 h 13.546667 c 0.465667,0 1.116065,0.2694 1.445339,0.59867 l 0.707628,0.70763 c 0.329274,0.32927 0.598673,0.97967 0.598673,1.44534 v 4.02166 c 0,0.46567 -0.269399,1.11607 -0.598673,1.44534 l -0.707628,0.70763 c -0.329274,0.32928 -0.979672,0.59867 -1.445339,0.59867 H 23.115042 c -0.465666,0 -1.116065,0.2694 -1.445339,0.59868 l -0.707628,0.70762 c -0.329274,0.32928 -0.598673,0.97968 -0.598673,1.44534 v 13.54667 c 0,0.46567 0.269399,1.11607 0.598673,1.44534 l 0.707628,0.70763 c 0.329274,0.32927 0.979673,0.59867 1.445339,0.59867 h 13.546667 c 0.465667,0 1.116065,0.2694 1.445339,0.59867 l 0.707628,0.70763 c 0.329274,0.32928 0.598673,0.97967 0.598673,1.44534 v 4.02167 c 0,0.46566 -0.269399,1.11606 -0.598673,1.44534 l -0.707628,0.70762 c -0.329274,0.32928 -0.979672,0.59868 -1.445339,0.59868 H 23.115042 c -0.465666,0 -1.116065,-0.2694 -1.445339,-0.59868 l -0.707628,-0.70762 c -0.329274,-0.32928 -0.598673,-0.97968 -0.598673,-1.44534 v -4.02167 c 0,-0.46567 -0.269398,-1.11606 -0.598672,-1.44534 l -0.707629,-0.70763 c -0.329273,-0.32927 -0.979672,-0.59867 -1.445339,-0.59867 h -4.021666 c -0.465667,0 -1.116066,-0.2694 -1.44534,-0.59867 l -0.707628,-0.70763 c -0.329274,-0.32927 -0.598673,-0.97967 -0.598673,-1.44534 v -13.54667 c 0,-0.46566 -0.269398,-1.11606 -0.598672,-1.44534 l -0.7076279,-0.70762 c -0.329274,-0.32928 -0.979673,-0.59868 -1.44534,-0.59868 h -4.021666 c -0.465667,0 -1.116066,-0.26939 -1.44534,-0.59867 l -0.707628,-0.70763 c -0.329274,-0.32927 -0.598673,-0.97967 -0.598673,-1.44534 v -4.02166 c 0,-0.46567 0.269399,-1.11607 0.598673,-1.44534 l 0.707628,-0.70763 c 0.329274,-0.32927 0.979673,-0.59867 1.44534,-0.59867 h 4.021666 c 0.465667,0 1.116066,-0.2694 1.44534,-0.59868 l 0.7076279,-0.70762 c 0.329274,-0.32928 0.598672,-0.97968 0.598672,-1.44534 v -13.54664 c 0,-0.46567 0.269399,-1.11607 0.598673,-1.44534 l 0.707628,-0.70763 c 0.329274,-0.32927 0.979673,-0.59867 1.44534,-0.59867 h 4.021666 z"
         id="path2-8"
         style="fill:#010101;stroke-width:0.264583" />
      <path
         class="cls-1"
         d="m 121.9271,210.64361 c -0.32927,-0.32927 -0.97967,-0.59867 -1.44534,-0.59867 h -4.02166 c -0.46567,0 -1.11607,-0.2694 -1.44534,-0.59867 l -0.70763,-0.70763 c -0.32928,-0.32928 -0.59867,-0.97967 -0.59867,-1.44534 v -4.02167 c 0,-0.46566 -0.2694,-1.11606 -0.59868,-1.44534 l -0.70762,-0.70762 c -0.32928,-0.32928 -0.97968,-0.59868 -1.44534,-0.59868 H 87.885148 c -0.46567,0 -1.11607,0.2694 -1.44534,0.59868 l -0.70763,0.70762 c -0.32927,0.32928 -0.59867,0.97968 -0.59867,1.44534 v 4.02167 c 0,0.46567 0.2694,1.11606 0.59867,1.44534 l 0.70763,0.70763 c 0.32927,0.32927 0.97967,0.59867 1.44534,0.59867 h 23.071672 c 0.46566,0 1.11606,0.2694 1.44534,0.59867 l 0.70762,0.70763 c 0.32928,0.32927 0.59868,0.97967 0.59868,1.44534 v 4.02167 c 0,0.46566 -0.2694,1.11606 -0.59868,1.44534 l -0.70762,0.70762 c -0.32928,0.32928 -0.97968,0.59868 -1.44534,0.59868 H 87.885148 c -0.46567,0 -1.11607,0.2694 -1.44534,0.59867 l -0.70763,0.70763 c -0.32927,0.32927 -0.59867,0.97967 -0.59867,1.44534 v 13.54666 c 0,0.46567 0.2694,1.11607 0.59867,1.44534 l 0.70763,0.70763 c 0.32927,0.32927 0.97967,0.59867 1.44534,0.59867 h 4.02167 c 0.46566,0 1.11606,0.2694 1.44534,0.59868 l 0.70762,0.70762 c 0.32928,0.32928 0.59868,0.97968 0.59868,1.44534 v 4.02167 c 0,0.46567 0.2694,1.11607 0.59867,1.44534 l 0.70763,0.70763 c 0.32927,0.32927 0.97967,0.59867 1.44534,0.59867 h 23.071662 c 0.46567,0 1.11607,-0.2694 1.44534,-0.59867 l 0.70763,-0.70763 c 0.32927,-0.32927 0.59867,-0.97967 0.59867,-1.44534 v -32.59667 c 0,-0.46566 -0.2694,-1.11606 -0.59867,-1.44534 l -0.70763,-0.70762 z m -8.21867,25.22466 c 0,0.46567 -0.2694,1.11607 -0.59867,1.44534 l -0.70763,0.70763 c -0.32928,0.32927 -0.97967,0.59867 -1.44534,0.59867 H 97.410118 c -0.46566,0 -1.11606,-0.2694 -1.44534,-0.59867 l -0.70762,-0.70763 c -0.32928,-0.32927 -0.59868,-0.97967 -0.59868,-1.44534 v -4.02166 c 0,-0.46567 0.2694,-1.11607 0.59868,-1.44534 l 0.70762,-0.70763 c 0.32928,-0.32928 0.97968,-0.59867 1.44534,-0.59867 h 13.546672 c 0.46567,0 1.11606,0.26939 1.44534,0.59867 l 0.70763,0.70763 c 0.32927,0.32927 0.59867,0.97967 0.59867,1.44534 z"
         id="path3-0"
         style="fill:#010101;stroke-width:0.264583" />
    </g>
  </g>
  <g
     inkscape:groupmode="layer"
     id="layer2"
     inkscape:label="components"
     style="display:none">
    <circle
       r="4"
       cy="49.768002"
       cx="15.24"
       id="circle1"
       style="display:inline;opacity:1;vector-effect:none;fill:#00ff00;fill-opacity:1;fill-rule:evenodd;stroke:none;stroke-width:1;stroke-linecap:butt;stroke-linejoin:miter;stroke-miterlimit:4;stroke-dasharray:none;stroke-dashoffset:0;stroke-opacity:1;paint-order:normal"
       inkscape:label="threshold" />
    <circle
       style="display:inline;opacity:1;vector-effect:none;fill:#ff0000;fill-opacity:1;fill-rule:evenodd;stroke:none;stroke-width:1;stroke-linecap:butt;stroke-linejoin:miter;stroke-miterlimit:4;stroke-dasharray:none;stroke-dashoffset:0;stroke-opacity:1;paint-order:normal"
       id="circle2"
       cx="15.24"
       cy="35.879765"
       r="4"
       inkscape:label="threshold_amount" />
  </g>
</svg>
