<?xml version="1.0" encoding="UTF-8" standalone="no"?>
<!-- Created with Inkscape (http://www.inkscape.org/) -->

<svg
   width="30.48mm"
   height="128.5mm"
   viewBox="0 0 30.480002 128.50002"
   version="1.1"
   id="svg8"
   inkscape:version="1.3 (0e150ed, 2023-07-21)"
   sodipodi:docname="ThresholdExpander.svg"
   xmlns:inkscape="http://www.inkscape.org/namespaces/inkscape"
   xmlns:sodipodi="http://sodipodi.sourceforge.net/DTD/sodipodi-0.dtd"
   xmlns:xlink="http://www.w3.org/1999/xlink"
   xmlns="http://www.w3.org/2000/svg"
   xmlns:svg="http://www.w3.org/2000/svg"
   xmlns:rdf="http://www.w3.org/1999/02/22-rdf-syntax-ns#"
   xmlns:cc="http://creativecommons.org/ns#"
   xmlns:dc="http://purl.org/dc/elements/1.1/">
  <defs
     id="defs2">
    <linearGradient
       id="linearGradient1"
       inkscape:collect="always">
      <stop
         style="stop-color:#f2f2f2;stop-opacity:1"
         offset="0"
         id="stop1" />
      <stop
         style="stop-color:#cccccc;stop-opacity:1"
         offset="1"
         id="stop2" />
    </linearGradient>
    <linearGradient
       inkscape:collect="always"
       xlink:href="#linearGradient1"
       id="linearGradient2"
       x1="5.6126599"
       y1="185.60524"
       x2="23.252449"
       y2="285.02948"
       gradientUnits="userSpaceOnUse" />
  </defs>
  <sodipodi:namedview
     id="base"
     pagecolor="#ffffff"
     bordercolor="#666666"
     borderopacity="1.0"
     inkscape:pageopacity="0.0"
     inkscape:pageshadow="2"
     inkscape:zoom="0.98994949"
     inkscape:cx="338.4011"
     inkscape:cy="191.42391"
     inkscape:document-units="mm"
     inkscape:current-layer="layer2"
     showgrid="false"
     units="mm"
     inkscape:snap-bbox="true"
     inkscape:snap-page="true"
     inkscape:bbox-nodes="false"
     inkscape:snap-bbox-edge-midpoints="false"
     inkscape:window-width="1512"
     inkscape:window-height="900"
     inkscape:window-x="505"
     inkscape:window-y="217"
     inkscape:window-maximized="0"
     inkscape:snap-bbox-midpoints="true"
     inkscape:snap-nodes="false"
     inkscape:showpageshadow="2"
     inkscape:pagecheckerboard="0"
     inkscape:deskcolor="#d1d1d1" />
  <metadata
     id="metadata5">
    <rdf:RDF>
      <cc:Work
         rdf:about="">
        <dc:format>image/svg+xml</dc:format>
        <dc:type
           rdf:resource="http://purl.org/dc/dcmitype/StillImage" />
        <dc:title />
      </cc:Work>
    </rdf:RDF>
  </metadata>
  <g
     inkscape:label="Layer 1"
     inkscape:groupmode="layer"
     id="layer1"
     transform="translate(0,-168.49998)">
    <rect
       style="display:inline;opacity:1;vector-effect:none;fill:url(#linearGradient2);fill-opacity:1;fill-rule:evenodd;stroke:none;stroke-width:0.649358;stroke-linecap:butt;stroke-linejoin:miter;stroke-miterlimit:4;stroke-dasharray:none;stroke-dashoffset:0;stroke-opacity:1;paint-order:normal"
       id="rect420"
       width="30.48"
       height="128.5"
       x="5.9211732e-17"
       y="168.49997" />
    <g
       id="Layer_1-2"
       data-name="Layer 1"
       transform="matrix(0.0938278,0,0,0.0938278,6.3732727,174.61666)">
      <path
         d="M 0,31 C 0,28.8 1,25.5 2.22,23.67 L 15.78,3.33 C 17,1.5 19.8,0 22,0 h 37 c 2.2,0 4,1.8 4,4 v 28 c 0,2.2 -1.8,4 -4,4 H 4 C 1.8,36 0,34.2 0,32 Z"
         id="path1" />
      <path
         d="M 94,32 V 4 C 94,1.8 95.8,0 98,0 H 89 C 86.8,0 84,1.5 82.78,3.33 L 69.22,23.67 C 68,25.5 67,28.8 67,31 v 1 c 0,2.2 1.8,4 4,4 h 27 c -2.2,0 -4,-1.8 -4,-4 z"
         id="path2" />
      <path
         d="M 59,36 H 32 c 2.2,0 4,1.8 4,4 v 28 c 0,2.2 -1.8,4 -4,4 h 27 c 2.2,0 4,-1.8 4,-4 V 40 c 0,-2.2 -1.8,-4 -4,-4 z"
         id="path3" />
      <path
         d="M 117,36 H 90 c 2.2,0 4,1.8 4,4 v 28 c 0,2.2 -1.8,4 -4,4 h 9 c 2.2,0 5,-1.5 6.22,-3.33 L 118.78,48.33 C 120,46.5 121,43.2 121,41 v -1 c 0,-2.2 -1.8,-4 -4,-4 z"
         id="path4" />
      <path
         d="M 153,32 V 4 c 0,-2.2 1.8,-4 4,-4 h -9 c -2.2,0 -5,1.5 -6.22,3.33 L 128.22,23.67 C 127,25.5 126,28.8 126,31 v 1 c 0,2.2 1.8,4 4,4 h 27 c -2.2,0 -4,-1.8 -4,-4 z"
         id="path5" />
      <path
         d="M 162,32 V 4 c 0,-2.2 -1.8,-4 -4,-4 h 9 c 2.2,0 5,1.5 6.22,3.33 l 13.56,20.34 C 188,25.5 189,28.8 189,31 v 1 c 0,2.2 -1.8,4 -4,4 h -27 c 2.2,0 4,-1.8 4,-4 z"
         id="path6" />
      <path
         d="m 185,36 h -27 c 2.2,0 4,1.8 4,4 v 28 c 0,2.2 1.8,4 4,4 h 19 c 2.2,0 4,-1.8 4,-4 V 40 c 0,-2.2 -1.8,-4 -4,-4 z"
         id="path7" />
      <path
         d="m 153,36 h -23 c -2.2,0 -4,1.8 -4,4 v 28 c 0,2.2 1.8,4 4,4 h 19 c 2.2,0 4,-1.8 4,-4 V 40 c 0,-2.2 1.8,-4 4,-4 z"
         id="path8" />
    </g>
  </g>
  <g
     inkscape:groupmode="layer"
     id="layer2"
     inkscape:label="components"
     style="display:none">
    <circle
       r="4"
       cy="49.768002"
       cx="15.24"
       id="circle1"
       style="display:inline;opacity:1;vector-effect:none;fill:#00ff00;fill-opacity:1;fill-rule:evenodd;stroke:none;stroke-width:1;stroke-linecap:butt;stroke-linejoin:miter;stroke-miterlimit:4;stroke-dasharray:none;stroke-dashoffset:0;stroke-opacity:1;paint-order:normal"
       inkscape:label="threshold" />
    <circle
       style="display:inline;opacity:1;vector-effect:none;fill:#ff0000;fill-opacity:1;fill-rule:evenodd;stroke:none;stroke-width:1;stroke-linecap:butt;stroke-linejoin:miter;stroke-miterlimit:4;stroke-dasharray:none;stroke-dashoffset:0;stroke-opacity:1;paint-order:normal"
       id="circle2"
       cx="15.24"
       cy="35.879765"
       r="4"
       inkscape:label="threshold_amount" />
  </g>
</svg>
